<svg width="67" height="61" viewBox="0 0 67 61" fill="none" xmlns="http://www.w3.org/2000/svg">
<rect x="7" y="20" width="7" height="2" rx="1" fill="#20509E"/>
<rect x="7" y="24" width="7" height="2" rx="1" fill="#20509E"/>
<rect x="7" y="36" width="7" height="2" rx="1" fill="#20509E"/>
<rect x="7" y="40" width="7" height="2" rx="1" fill="#20509E"/>
<path d="M11.804 44V18.08H16.592V28.628H22.676L31.532 18.08H36.716V19.448L26.996 31.04L36.752 42.632V44H31.532L22.676 33.416H16.592V44H11.804ZM40.3115 44V28.088C40.3115 26.72 40.7915 25.556 41.7515 24.596C42.7355 23.612 43.9115 23.12 45.2795 23.12H56.8715V27.836H46.2875C45.6155 27.836 45.2315 27.884 45.1355 27.98C45.0635 28.052 45.0275 28.424 45.0275 29.096V44H40.3115Z" fill="#20509E"/>
</svg>
